<svg preserveAspectRatio="none" width="100%" height="100%" overflow="visible" style="display: block;" viewBox="0 0 257.94 100" fill="none" xmlns="http://www.w3.org/2000/svg">
<g id="Group 2147222713">
<g id="Group">
<g id="Group_2">
<path id="Vector" d="M34.56 0V8.64H60.47V0H34.56ZM25.92 73.43H34.55V8.65H25.92V73.43ZM25.92 0H0V8.64H25.92V0Z" fill="var(--fill-0, #F1E8C7)"/>
<path id="Vector_2" d="M86.81 21.6V47.51H95.45V21.6H86.81ZM78.17 47.51V69.11H86.81V47.51H78.17ZM69.53 69.11V86.39H78.17V69.11H69.53ZM60.89 47.51V69.11H69.53V47.51H60.89ZM52.25 86.39V95.03H69.53V86.39H52.25ZM52.25 21.6V47.51H60.89V21.6H52.25Z" fill="var(--fill-0, #F1E8C7)"/>
<path id="Vector_3" d="M122.76 21.6V30.24H135.72V21.6H122.76ZM114.13 30.24V21.6H105.49V73.43H114.13V38.88H122.76V30.24H114.13Z" fill="var(--fill-0, #F1E8C7)"/>
<path id="Vector_4" d="M179.56 56.15V64.79H188.2V56.15H179.56ZM149.33 64.79V73.43H179.56V64.79H149.33ZM149.33 21.6V30.24H179.56V21.6H149.33ZM179.56 30.24V43.2H149.33V30.24H140.69V64.79H149.33V51.83H188.2V30.24H179.56Z" fill="var(--fill-0, #F1E8C7)"/>
<path id="Vector_5" d="M199.65 0V73.43H208.29V0H199.65Z" fill="var(--fill-0, #F1E8C7)"/>
<path id="Vector_6" d="M221.24 0V73.43H229.88V0H221.24Z" fill="var(--fill-0, #F1E8C7)"/>
</g>
<g id="Vector_7">
</g>
</g>
<path id="Vector_8" d="M241.61 2.74999H239.1V0.23999H246.64V2.74999H244.13V9.02999H241.62V2.74999H241.61ZM247.89 0.23999H250.4V1.49999H251.66V4.00999H250.4V9.03999H247.89V0.23999ZM254.17 4.00999V7.77999H251.66V4.00999H254.17ZM255.43 0.23999H257.94V9.02999H255.43V3.99999H254.17V1.49999H255.43V0.23999Z" fill="var(--fill-0, #F1E8C7)"/>
</g>
</svg>
